<svg id="Layer_1" data-name="Layer 1" xmlns="http://www.w3.org/2000/svg" viewBox="0 0 366.41 95.67"><defs><style>.cls-1{fill:#8dc63f;}.cls-2{fill:#f15a29;}.cls-3{fill:#231f20;stroke:#27aae1;stroke-miterlimit:10;stroke-width:2px;}</style></defs><path class="cls-1" d="M123.73,96.31c-35.5,0-71.76-4.12-92.46-7,1.23,0,2.52,0,3.85,0,87.36,0,126.1-24.33,141.42-38.83C200,28.35,250.65,16.51,289,10.48c29.33-4.61,56.14-6.61,69.58-7.39-23.92,7-91.79,29.6-142.75,73.42C200.59,89.65,169.59,96.31,123.73,96.31Z" transform="translate(-13.72 -1.64)"/><path class="cls-1" d="M350,4.65c-9.11,2.87-21.25,7-35,12.6-27.41,11.11-67,30.29-99.78,58.5-15.1,13-45.87,19.56-91.49,19.56-28.1,0-56.67-2.59-77.61-5.07,80-1.95,116.34-25,131.11-39,23.24-22,73.7-33.79,111.94-39.79C313.08,7.71,335.31,5.69,350,4.65m17.67-3S221.58,6.51,175.85,49.81C140,83.77,70.29,88.37,35.12,88.37c-13.09,0-21.4-.64-21.4-.64s55.53,9.58,110,9.58c37.65,0,74.8-4.57,92.79-20C279.64,23,367.65,1.64,367.65,1.64Z" transform="translate(-13.72 -1.64)"/><path class="cls-2" d="M379.75,36.89c.5.18.31-1.91.38-2.29C379.29,35.07,379.77,37.44,379.75,36.89Z" transform="translate(-13.72 -1.64)"/><polygon class="cls-2" points="357.74 40.07 357.88 39.22 356.67 41.32 357.74 40.07"/><path class="cls-2" d="M363.67,41.73c.77,3.57,2.82-.59,4.22.67l.23.81.6-2.88C367,40.8,364.87,42.72,363.67,41.73Z" transform="translate(-13.72 -1.64)"/><path class="cls-2" d="M359.46,34.05c.27,1.38-.89,1.2,1,.42a2.19,2.19,0,0,1-.17-.35A2.07,2.07,0,0,1,359.46,34.05Z" transform="translate(-13.72 -1.64)"/><path class="cls-2" d="M360.26,34.12c.82-.1-.55-1.16,0,0Z" transform="translate(-13.72 -1.64)"/><path class="cls-2" d="M356.48,35l1.07-1.25c-.23-.82-1.2-1-.84-1.59C355.6,32.79,355.84,33.61,356.48,35Z" transform="translate(-13.72 -1.64)"/><path class="cls-2" d="M355.47,37.56,356,37C355.93,36.69,355.78,36.57,355.47,37.56Z" transform="translate(-13.72 -1.64)"/><path class="cls-2" d="M357.21,35.92,356,37c.16.58.18,1.73.54-.4C356.48,37.69,356.71,36.67,357.21,35.92Z" transform="translate(-13.72 -1.64)"/><path class="cls-2" d="M357.88,36.45c.61.78,1.4,1.26.33,2.5C360.27,38.45,359.94,35.94,357.88,36.45Z" transform="translate(-13.72 -1.64)"/><path class="cls-2" d="M363.3,45.43l.82,1,.69-1.2C364.47,45.86,363.25,44.31,363.3,45.43Z" transform="translate(-13.72 -1.64)"/><path class="cls-2" d="M349.74,33.15a24.11,24.11,0,0,0,.46,3l.79-.87C350.58,34.75,349.8,34.28,349.74,33.15Z" transform="translate(-13.72 -1.64)"/><path class="cls-2" d="M350.2,36.14,349,37.46C350.09,37.6,350.28,37,350.2,36.14Z" transform="translate(-13.72 -1.64)"/><polygon class="cls-2" points="341.59 39.88 343.53 37.13 341.21 39.92 341.59 39.88"/><polygon class="cls-2" points="331.46 31.45 332.12 29.69 330.94 32.35 331.46 31.45"/><path class="cls-2" d="M342.16,33.42c.49-1.46-.71-2.45-.19-3.35-.82.26-1.51,1.52-2.13,2.65C340.51,32.08,341.22,32.24,342.16,33.42Z" transform="translate(-13.72 -1.64)"/><path class="cls-2" d="M338.79,34.36a9.38,9.38,0,0,0,1-1.64A4.82,4.82,0,0,0,338.79,34.36Z" transform="translate(-13.72 -1.64)"/><path class="cls-2" d="M347,37.1a3.68,3.68,0,0,0-1-2.16l.48,2.13Z" transform="translate(-13.72 -1.64)"/><path class="cls-2" d="M346.53,37.14l0-.07c-.51,0-.86-.09-1-.11Z" transform="translate(-13.72 -1.64)"/><path class="cls-2" d="M347.1,37.11H347C347,37.31,347.06,37.38,347.1,37.11Z" transform="translate(-13.72 -1.64)"/><path class="cls-2" d="M352.17,39.62c-.69,1.2-2.15,2.49-.72,4.3C351.94,42.45,351.13,41.42,352.17,39.62Z" transform="translate(-13.72 -1.64)"/><path class="cls-2" d="M347.7,39.77l1.28.48a3.62,3.62,0,0,1,.07-2Z" transform="translate(-13.72 -1.64)"/><polygon class="cls-2" points="333.37 38.81 333.99 38.13 333.51 37.95 333.37 38.81"/><path class="cls-2" d="M341,36.34a2.26,2.26,0,0,1-1.82,1.18,4.41,4.41,0,0,0,2.2.62C341.45,37.47,341.75,36.26,341,36.34Z" transform="translate(-13.72 -1.64)"/><path class="cls-2" d="M343.68,36.92s-.09.07-.12.12S343.69,37.28,343.68,36.92Z" transform="translate(-13.72 -1.64)"/><path class="cls-2" d="M332.5,37.55c0,.12.07.27.11.39,0-.12,0-.24,0-.37Z" transform="translate(-13.72 -1.64)"/><path class="cls-2" d="M341.48,38.54c.55.41.87-.12,1.18-.78a3,3,0,0,1-1.3.38C341.31,38.44,341.31,38.64,341.48,38.54Z" transform="translate(-13.72 -1.64)"/><path class="cls-2" d="M336.94,35.37a7,7,0,0,0,.95,1.17C337.61,35.87,337,34.82,336.94,35.37Z" transform="translate(-13.72 -1.64)"/><path class="cls-2" d="M343.37,36.45a.73.73,0,0,1,.08-.09C343.27,35.9,343.29,36.12,343.37,36.45Z" transform="translate(-13.72 -1.64)"/><path class="cls-2" d="M343.37,36.45a5.38,5.38,0,0,0-.71,1.31,2.89,2.89,0,0,0,.9-.72A3.42,3.42,0,0,1,343.37,36.45Z" transform="translate(-13.72 -1.64)"/><path class="cls-2" d="M330.59,51.28c.08-2,1.5-3.82,2.75-1.7,1.21-1.5.36-8-.73-11.64a3.36,3.36,0,0,1-1.27,2.84c.45,1.08,2.8,2.51,1.76,4.31-1.65,1-1.37-.69-2.18-1.73.7,2.46-2.08,3.61-1.69,7.23l1.44-1.29C330.7,49.87,330.18,50.77,330.59,51.28Z" transform="translate(-13.72 -1.64)"/><path class="cls-2" d="M335,38.12l.51-.24c-.59-.35-1-1.13-1.8-2.68a3.85,3.85,0,0,0-1.08,2.37l2.55.26Z" transform="translate(-13.72 -1.64)"/><path class="cls-2" d="M337.83,37.85c-.39,2.16-1.62,3.08-.84,5.41,1.51-.16,1-1.81,1.94-2.75-2.44.55.69-1.21-1.08-2.42a3.17,3.17,0,0,1,1.31-.57,6.66,6.66,0,0,1-1.27-1,.84.84,0,0,1,.06.14h0v0c.11.27.14.43,0,.28,0,0,0,0-.05,0a5.11,5.11,0,0,1-.1.82c-.71-.44-.12-.56.1-.82a2.91,2.91,0,0,0,0-.32,0,0,0,0,0,0,0l-2.44,1.2C336,38.17,336.68,38.1,337.83,37.85Z" transform="translate(-13.72 -1.64)"/><path class="cls-2" d="M350.18,48.56a1.57,1.57,0,0,1-.08-.5C350,48.33,349.89,48.51,350.18,48.56Z" transform="translate(-13.72 -1.64)"/><path class="cls-2" d="M349.17,47.27c.17-.3.31-1.17.89-1,.51.65,0,1,0,1.74.34-.57,1.21-1.55.11-2.59l-.17.29c-1-.73-2.28-3.41-2.11-3.7A26.13,26.13,0,0,0,349.17,47.27Z" transform="translate(-13.72 -1.64)"/><path class="cls-2" d="M343.43,43.11l-2,1.07L342.46,46l-.07-1.12C343.56,45.35,343.29,44,343.43,43.11Z" transform="translate(-13.72 -1.64)"/><polygon class="cls-2" points="318.54 34.84 318.8 32.56 317.64 35.79 318.54 34.84"/><polygon class="cls-2" points="315.9 35.14 315.98 33.16 315.29 34.35 315.9 35.14"/><path class="cls-2" d="M180.48,62.47l-.59.57A1.9,1.9,0,0,0,180.48,62.47Z" transform="translate(-13.72 -1.64)"/><path class="cls-2" d="M184.81,62.57l.1-1C184.72,62.14,184.64,62.53,184.81,62.57Z" transform="translate(-13.72 -1.64)"/><path class="cls-2" d="M264.63,37.5c-.89-1.84-1.88-4.7-1.76-2.48l.29,2.17A1,1,0,0,1,264.63,37.5Z" transform="translate(-13.72 -1.64)"/><path class="cls-2" d="M220.22,50.79c.09.21.17.44.26.66.21-.75.4-1.44.57-2.08C220.8,49.81,220.52,50.29,220.22,50.79Z" transform="translate(-13.72 -1.64)"/><path class="cls-2" d="M219.67,59.77l-1.16-1.39A4.91,4.91,0,0,0,219.67,59.77Z" transform="translate(-13.72 -1.64)"/><path class="cls-2" d="M156.84,65l-.68,2.22C157.25,67.15,156.76,66,156.84,65Z" transform="translate(-13.72 -1.64)"/><path class="cls-2" d="M302.52,37.78a3.6,3.6,0,0,0-1.88-1.29C301.55,37.73,302.3,39.59,302.52,37.78Z" transform="translate(-13.72 -1.64)"/><path class="cls-2" d="M182,39.44a1.76,1.76,0,0,0-.5,1.32A1.48,1.48,0,0,0,182,39.44Z" transform="translate(-13.72 -1.64)"/><path class="cls-2" d="M298.46,36.51c.14.22.27.33.4.51a2.28,2.28,0,0,1,1.78-.53C300,35.57,299.19,35,298.46,36.51Z" transform="translate(-13.72 -1.64)"/><path class="cls-2" d="M71,63.82a2.56,2.56,0,0,1-.2-.26C70.81,63.85,70.9,63.87,71,63.82Z" transform="translate(-13.72 -1.64)"/><path class="cls-2" d="M45.86,42.12a3,3,0,0,1,1-.18C46.7,41.8,46.39,41.81,45.86,42.12Z" transform="translate(-13.72 -1.64)"/><path class="cls-2" d="M319,35.91c.56-.14.09-.24,0,0Z" transform="translate(-13.72 -1.64)"/><path class="cls-2" d="M321.76,44.47a2.37,2.37,0,0,0-.22,1.06A3,3,0,0,1,321.76,44.47Z" transform="translate(-13.72 -1.64)"/><path class="cls-2" d="M293,50.06h-.05C293.1,50.47,293.07,50.39,293,50.06Z" transform="translate(-13.72 -1.64)"/><path class="cls-2" d="M319.82,36.89a2.92,2.92,0,0,0-.73-.64A2.75,2.75,0,0,0,319.82,36.89Z" transform="translate(-13.72 -1.64)"/><path class="cls-2" d="M319.69,35.87a5.17,5.17,0,0,0,.5.2C320.25,35.71,320.19,35.48,319.69,35.87Z" transform="translate(-13.72 -1.64)"/><path class="cls-2" d="M318.18,36a1.64,1.64,0,0,1,.91.22c-.11-.14-.16-.27-.13-.34A5.67,5.67,0,0,1,318.18,36Z" transform="translate(-13.72 -1.64)"/><path class="cls-2" d="M117,57.66c0-.07-.08-.11-.12-.21C116.27,58.36,116.52,58.21,117,57.66Z" transform="translate(-13.72 -1.64)"/><path class="cls-2" d="M250.2,60.14l.06-.11-.08-.07Z" transform="translate(-13.72 -1.64)"/><path class="cls-2" d="M248.19,61.77c.84-2.71,1.33-2.38,2-1.81l-.72-6.25Z" transform="translate(-13.72 -1.64)"/><path class="cls-2" d="M170.11,63.18l1.43,1.93c-1.68,3.23-2.93,2.13-1.58,4.86.15-6.79,5.5-.74,5.65-7.52l.94,1.42c-.27-.07-.31.33-.57.27,1.84,3.24,1.31-4.92,3.65-4,.82.51,1.4,1.49.85,2.3l1.8-1.69c.53.13.41,1.31-.11,1.18l2.76-.56,0,.2a24.91,24.91,0,0,1,1.7-3.43c.71,1-.34.73-.16,1.57L188,58.08c.64,1.76-.62,3.48-1.68,3.23,1.49,6.77,1.26-1.72,4.38,2.22l-1.44.87c1,3.85,2.08,2.44,3.74,4.83-.4-1.25-3.32-6-1.67-7.73.47.51,1.09.75,2-.62,0,2.41.9,1.81,2,1.66l-.05,3.2c1.18-.93,1.07-2.56,1.76-4,1.33.3,1.62,2.78,2,4.86,2.12.5-1.5-4,1-4.58,1.77,1.21,3-.11,5.09-2,1.24,1.1-.2,2,.25,2.87l1.07-2.56c.27.06.19.85.15,1.24.91-1,0-3.19,1.49-4.07.36-3.53,3,5.12,4.77,1.11.45.9-.2,2-.05,3.2,2.43-2.65,2.09-1.93,4.08-5.47l1.73,2.08c-1.28-2.39.32-5.25,1.71-7.59-.46-1.16-.85-2.17-1.11-2.65l2.24-1.73c.28.52.06,1.62-.3,3,.15-.27.3-.53.41-.77.82,1.17.41,3-.15,4.81-.28-.62-.56-1.3-.83-2a18.78,18.78,0,0,0-.92,6,1.82,1.82,0,0,1,.74-.87,3.2,3.2,0,0,0-.16,1.32c.07.34.3-.37.67-1.19l.54,3.56.11-1.42,3,2.21c2.08-3.6,3.88-8.9,7.22-10.4-.81,2.62-.15,4.27-.17,7.37-.94-3.27-2.58,1.42-4.33.76.91.34.72,1.82.5,2.33l3.07-3c-.05,2.53.67,1.89,1.49,2.93-.65-5,2.28-3.35,3.53-4.89.09,1.68-.19,3.4-1.74,3,1.73,3.76,2.15-5.9,3.84-2.71-.37,0-.58-.21-.72.65a1.4,1.4,0,0,1,2.53,1.13l-.38,0c2.5.57,7.59,0,7.93-4.28,0,.55-.29,5.13-.43,6l4.33-14.34c-.36,3.65,1.21,12.34-.84,14.42.6.52,1.34,1.12,2.58-.18-.41-.52-1.05-5.27-.5-5.61,1.55,4,1.07,2.16,3,5.62-.62-.78,0-6.51,1-6.34-.14.86.13,5.65-.22,6.25l2.35-5.64c-.59,1-.07,4.77.47,6.35-.25-1.1,2.07.09,2.7-.47l-1-1.3c2.7.83,2.6-7.92,5.27-7.65-.31,1.17-.74,7.15.63,7.85.6-2.88,2.65-13.87,5-16.11l.46,1.65,1.8-1.89a130.43,130.43,0,0,1-5.9,17c1,1.3.3,1.94,1.81,1.78a1.86,1.86,0,0,1-1.25,2.44l3.52,1c-.18-3.36,2.66-3.39,2.51-6.19l-3.79,3.51c-.19-3.35,2.13-9.55,4.63-9,.64,1.33-.43,6-.37,7.11.31-1.16,2.35-2.23,2.58-1.41l-1,1.8c1.4,1.26,2.23-4.47,3.92-1.27.58.21,1.75,4.31,1.83,2.32-1-3.83-1.24-15.69-.63-18.58.2.26,3,3.65,3.72,5.54,1,3-1.37,7.17-.55,9.75a6.32,6.32,0,0,1,.76-2.42c.61.78-.23,2.85,1.08,2.42.2-3.41,2.68.27.6-2.88,1.28-1,1.37.69,2.88.53-.5-2.2,1.3-7.51,2.57-8.49a8.24,8.24,0,0,0,.38,2.51c2.63.28,4.06,1.82,6.51,1.83.23.82,1.43,1.81.93,3.28.35-.6.67-1.76,1.42-1.85,1.49,2.94-1.68.47-.54,4,.08-2,1.94-2.75,3-4-.36-3-2.5-.56-3.57.68,0-4.22,1.81-8.65,4.36-10.62,2-1.07.91,2.72,1.26,2.11,3.83.71,3.2-7.39,6.4-4.37,1.29,2.68.1,5.35.4,7.29-1.66,1-2.57-1.69-3.69-1.57l1.4,1.26c-.53.89-1.63,1.58-2.24.81,1.08,2.4,6.47.41,9.45,2.62.51-.91,1.41-1.85,1-2.92l-.94.38c-.87-2.16,1.74-3,.55-4,1.24-1.53,2.63-3.94,4.4-2.72l.36,3.06c-.05-.9-1.17-1.82-1.66-.88.73-1.36,2.74,4.13,3.52.11L324,42.43c1.25-1.55,2.78-4.81,4.35-3.86-.73-3-.35.35-1.49-3.18,1,4.4-4-.16-2.42,4.46-1.18-4.1-2-1.73-3.51-5.22.05,1,.54,1.93-.77,1.44a6,6,0,0,1-.29.9l-.08-.08a.75.75,0,0,0,.07.12c-.06.15-.06.18,0,0a4.08,4.08,0,0,1,.68,1.53c-.64,2.33-2.73,2.27-3.42,3.48-.79-.47.31-1.16-.12-2.24l-1,1.81c-.12-2.25-2.1-3.72-.28-5.05l-1.65-.08c-1-1.26-2.32-1.75-3.14-.8-.78-.48-1.95,2.5-1.29.74l-2.58,1.41,0-.56c-2.55-.26-5.23,3.76-8.19-.27-.85.57-1.74,1.27-3.18.65l-.3-1.94c-1.1.68-3.33-1.92-3.79.11-1.23-5.22-5.37-1.1-7.33-2l-.05,2.54c-1.34-.13-2.62.6-4.27,1.63l.12,2.24c-1.42,1.85-3.69-1.57-6-1.32.15-.86.73-.64,1.14-.12-2.75-5-5.68,3.72-8.17.05-.6.82-1.05.55-1.48,0a.22.22,0,0,0,.15-.12.64.64,0,0,0-.25,0c-.27-.38-.56-.83-.86-1.18a4.73,4.73,0,0,0,.72,1.19,4,4,0,0,0-1.88.9l-.31-2.4a1.22,1.22,0,0,0-.17.07c-.69-.88-.54,1.14-.16,3a5.52,5.52,0,0,0-.92,1.46c-.59-3.88-1.83,1.32-2.62-2.82-.46,2-3.51,1.55-3.86,5.81,0-.56-.23-.82.15-.86-.79-.47-1.57-.95-2.27.25L253,41l-1.68,4.13c-1.05-1.86-1.49-2.94-.47-5.3-2.46,3.64-2,1.38-4.1,5l.09-2c-.76.08-1.94,2.74-2.41,1.11-1.72-3.75-8.37-.46-12.74-3.92.89,5.82-2-2.6-2.17,1.92-.27-1.38-.88-2.15-.18-3.35-2.21,1.37-3.35-2.16-4.85,1.66-.26-1.39.46-2,.23-2.84-.18.3-.7,1.2-.93.38s.31-1.16.66-1.76c-2.26.25-2.46,4.5-2.59,8.48-1.16-1.88-1.73-1.6-2.54,1-.41-1.3-1.09-2.66.32-3.14-.8-.19-4.85-1.88-4.91,1.32-.25-.81-1.1-.23-1.31.14-1.78-.18-1.93-.46-3.67-.15l.48.52c-.66,3.86-1.44.87-2.84,1.35l0-.4c-3.25-2.76-1.38,1.34-4.59-1.8l.2,2.39c-.26,5.16-2.84-3-4.67-1l.67,1.36c-1,1.78-2.87-7-3.88-7.63-.23-.44.34-.72.64-1.05-2.67-3-.31,3.14-2.28,3.89-.38-1.7.43-4.32-.9-4.62-.67-1.37-3.81,5.53-5.65,2.29.41,1.31.82,2.61-.09,3.59-1.4.48-3.83-4.9-5.07-.78a2.34,2.34,0,0,1-.26-1c-1.07,1.07-3.48,1.79-4.11,4-1.06-8.28-6.65,4.08-6.68-3.56l-3.3.44.08-.79c-2.12-.48-2.85,1.35-3.58,3.19-.49-.52-.14-1.23-.1-1.63-3.1-1.52-3.4-1.19-6,2.63l-.29-2.47c-.69,1.44-4.49-3.85-7.5-.94a2.48,2.48,0,0,1,.33-1.11c-3.38,2.93-8.21-6.82-9.38,2.22L138.79,45c2.91.68-.41,3.92.8,5.41-1.14.54-3-2.7-1.58-3.17l.23.45c.48-4.71-3.63-1.64-3.57-4.85-5.72.28-11.32-2.28-16.68-2.44l.65,3.65-1.87-.2c-.5-.84-.68-2.85.65-2.71-.72-2.07-2.22,1.75-2.25,2.55-2.63-1.46,1-4.27.18-4.36l-1.08.29.25.42c-.87,1.5-.94,3.09-2.54,2.92-1-.73-.54-2.25-.94-2.39,0-.26-.14-.38-.62-.1l-2.35-.3,1,2.88c-1,1.44-2.21-.13-1.1,3.13-1.64-5-8.8-1.74-9.79-3.3C96.69,45,95.25,45,93.46,44.74c.45.6.74,3.84-.8,3.46.51-6.71-2.85-2.89-4.13-7.7,1.14,3.19-4.38.82-2.6,5.35-1.29-.53-.1-2.51-1.08-4.08-3,2.62-6.76-1.63-10.54-.73,0,.88.59,2.22-.21,3.54l-2-4.38c-.75.43-.65,5.08-2,2,.2.73.49,1.85,0,2.13C62.58,40.14,54.9,48,47.31,40c1,1.7.35,1.88-.42,1.94.51.41,0,2.18.11,3.37L43.82,42c-.55,3.31-3.38.25-3.68,3.42l1-.58c-1.3,3.74,1.92,8.28,1.77,13.07,1.45-4.25,4,6.26,6.36.16.54,1-.45,1.55-.15,2.66.6-2.06,1.34-2.49,2.73-1.58l-.15.51c3.88-.53,5.56,1.48,9.94,2.79l-.34-2.36c.94.31,1.14,1,1.59,1.64,1-3.6-2.64-.19-1.69-4.15,1.28,4.81,6.62,0,7.5,5.49,1.45,0-.44-2.74,1-2.72l.4,1.48.35-1.91c.94.31,1.44,2.16,1.48,3.41-.23-.15-.65.36-.89.47,1.24,1.73,3.45-.63,3.88-.06l-1.4-.9c3.93-1.42,8.76.49,12.54-2.55l-.3-1.12c2.89-2.09,2.34,1.21,5.52.23l-.11.27c.63-1.12,1.48-1.69,2.35-1.57-.79,1.32,1.54,2.53.49,4,3.14-2.24,1.55-1.76,3.6-5.93L98.09,58c.7-1.68.75-2.56,2.34-3.06-1.3,1.61,1,2.82-.41,4.94,3.38,4,4.93-4.14,6.51,1.78,1.5-5.14-2.91-2.82-2.06-3.93-.73-1.67,1.24-3.84,2.29-3.34,1.07.11,1.87,6.55,4.55,6.43-.26,0-.28.37-.54.35,1,1.3,2-1.79,3.2.33.67-3.11,1.6.17,1.77-3.79l-2.45.93c1.39-1,2.66-5.69,5-3.46A7.17,7.17,0,0,1,117,57.66c.69,1.16,1.29-.79,2,.41-.17,4-3,.88-4.46,3.91.73,1.67,2.81-2.89,2.09,1.41,1-5.46,2.65.67,4.44-3.51l-.1,2.37c.28-.37.87-1.5,1.4-1.44l-.94,3.08c1.46-2.64,2.86,2.27,4.27.83-3,.1-.69-2.85-2-4.57,3.63-3.2,2.15,6.19,6.23,5-.55.34-2.09-1.41-1.23-2.51a5.73,5.73,0,0,1,2.3,2.62c2.7-.51-.43-2.44.71-3.9.94,2.88,1.32-1.19,2.5-2.12l0,2.41c3.1,1.52.78-5,3.57-3.19l-1.14,3.36,1.44-.88-.28,2.75c1.56-2.05,2.05-1.53,3.6-.77-.37-1.7.17-4.38,1.54-4.46.94,1.42-.51,2.29,1.43,1.93-.43,1.52-.89,3.41-1.75,1.2-.08.79-.42,1.52-.51,2.29,1,1.64,2.53.36,3.23.33a1.15,1.15,0,0,1-.76-.56l2.78-3.36a2.46,2.46,0,0,1-.24,2.35c.57-.27,1-1.38,1.79-1.59-.2,2-.14,4-1.31,4.91l2.66-2.19c.18.85,1.39,2.33,1,3.05,1.5,1.15,3.61-3.83,5.59-2.32a1.7,1.7,0,0,1,.72-1c1.85.43,3.51,2.82,5.68.12l1.26,3.5c1.71-.81-1.71-4.41,1.13-5.76,2-1.14.78,3,1.5,4,1-1.78,2.71-5.4,4.59-2.55C171.17,63.43,170.69,62.91,170.11,63.18Zm21.15-1.72c-.41.51-1.22,2.07-1.53.65C190.18,59.35,190.55,60.67,191.26,61.46Zm32.11-6.06c-.3.8-.77.41-1.31-.5C222.44,54.7,222.88,54.79,223.37,55.4Zm89.46-17.48-.05.12C311.86,37.11,312.19,37.47,312.83,37.92Zm1.9,1a1.28,1.28,0,0,0,.09-1c-.12.62-.55.66-1,.49C313.92,39.06,314.17,39.5,314.73,39Zm-203.9,2.52.38.63C110.38,42.8,110.61,42.17,110.83,41.47Z" transform="translate(-13.72 -1.64)"/><path class="cls-2" d="M219.75,58.73a6.08,6.08,0,0,1-.19-1.31A1.3,1.3,0,0,0,219.75,58.73Z" transform="translate(-13.72 -1.64)"/><path class="cls-2" d="M157,64.55l-.07,0a3.18,3.18,0,0,0-.06.43Z" transform="translate(-13.72 -1.64)"/><path class="cls-2" d="M285.48,59.63a2.63,2.63,0,0,1-.77-1.24C284.7,59,284.88,59.48,285.48,59.63Z" transform="translate(-13.72 -1.64)"/><path class="cls-2" d="M324.76,34.78l-1.21.63c.59-.12.8.41,1.1.79C324.62,35.63,324.38,34.82,324.76,34.78Z" transform="translate(-13.72 -1.64)"/><path class="cls-2" d="M335.44,49.62c.17-.29.37,0,.55-.33l-.06-1.12C335.17,48.25,334.65,49.15,335.44,49.62Z" transform="translate(-13.72 -1.64)"/><path class="cls-2" d="M326,42.78c.11,2,.87,1.34,1.72.95a.26.26,0,0,1-.15,0C327.75,40.89,326.85,41.84,326,42.78Z" transform="translate(-13.72 -1.64)"/><path class="cls-2" d="M327.87,43.66a1.11,1.11,0,0,1,.78,0C328.75,42.47,328.33,43.37,327.87,43.66Z" transform="translate(-13.72 -1.64)"/><path class="cls-2" d="M317.13,37.59c.41.52.24-2.6.47-1.77C318,33.23,314.93,39,317.13,37.59Z" transform="translate(-13.72 -1.64)"/><polygon class="cls-2" points="312.97 47.82 312.65 45.32 312.19 47.34 312.97 47.82"/><path class="cls-2" d="M320,47.68l1.37.68a1,1,0,0,1,.36-.86C320.84,47.43,319.91,46.93,320,47.68Z" transform="translate(-13.72 -1.64)"/><path class="cls-2" d="M321.68,47.5a1,1,0,0,0,1.09-.42A2,2,0,0,0,321.68,47.5Z" transform="translate(-13.72 -1.64)"/><polygon class="cls-2" points="311.12 48.59 310.71 48.07 309.75 47.89 311.12 48.59"/><path class="cls-2" d="M305.31,47.3l-1.48.73c-.14.86.27,1.39.82,1C305,48.47,305.55,48.13,305.31,47.3Z" transform="translate(-13.72 -1.64)"/><path class="cls-2" d="M309.86,54.13a5,5,0,0,1-.67-1.9l0,3.11Z" transform="translate(-13.72 -1.64)"/><path class="cls-2" d="M305.53,54.89c-.14.86-2.14,2.49-.25,2.28C305.42,56.31,306.9,55.59,305.53,54.89Z" transform="translate(-13.72 -1.64)"/><polygon class="cls-2" points="269.4 49.49 269.77 49.45 269.68 44.36 269.4 49.49"/><path class="cls-2" d="M263.48,63.47c1.77,1.2.39-3.15,2-1.64.41-1.2-1.31-1.23-.89-2.27C263.53,60.83,263,60.12,263.48,63.47Z" transform="translate(-13.72 -1.64)"/><path class="cls-2" d="M264.58,59.56a5.18,5.18,0,0,0,.54-.78A2.38,2.38,0,0,0,264.58,59.56Z" transform="translate(-13.72 -1.64)"/><polygon class="cls-2" points="27.97 37.78 26.83 36.72 27.58 38.43 27.97 37.78"/><path class="cls-2" d="M39.55,43.21,39.26,40l-.66,2.94C38.85,42.76,39.35,42.48,39.55,43.21Z" transform="translate(-13.72 -1.64)"/><path class="cls-2" d="M194.45,68l.08-.78c-.18-.84-.45-.91-1-1Z" transform="translate(-13.72 -1.64)"/><polygon class="cls-2" points="165.36 64.02 165.62 64.08 165.11 61.15 165.36 64.02"/><path class="cls-2" d="M166.22,69.5c.53.12,1.14-.54,1.67-.42C166.75,69.62,166.05,65.84,166.22,69.5Z" transform="translate(-13.72 -1.64)"/><path class="cls-3" d="M89.28,74H50.67V25.42H89.28v5.74H58.47V44.47H89.28v5.74H58.47v18H89.28Z" transform="translate(-13.72 -1.64)"/><path class="cls-3" d="M144.21,60.13a11.18,11.18,0,0,1-1.59,5.61,14.08,14.08,0,0,1-4.47,4.7,25.67,25.67,0,0,1-7.34,3.26,37.9,37.9,0,0,1-10.09,1.17,60.49,60.49,0,0,1-11.39-1A66.54,66.54,0,0,1,99,71V62.9h.55a34.61,34.61,0,0,0,10.27,4.73A39.9,39.9,0,0,0,120.8,69.3q7.23,0,11.27-2.26t4-6a5.75,5.75,0,0,0-1.91-4.76,14.15,14.15,0,0,0-5.81-2.38c-2-.44-4.1-.8-6.39-1.08s-4.73-.64-7.3-1.08q-7.8-1.37-11.55-4.68a10.92,10.92,0,0,1-3.76-8.62q0-6.11,6.22-10t15.78-3.9a60.23,60.23,0,0,1,11.33,1,59.2,59.2,0,0,1,9.13,2.41v7.63h-.55a29.25,29.25,0,0,0-8.8-3.89,40.29,40.29,0,0,0-11.15-1.55q-6.25,0-10.06,2.15t-3.79,5.55a6.13,6.13,0,0,0,1.89,4.76c1.26,1.15,3.47,2,6.65,2.64,1.68.31,4.06.68,7.16,1.11s5.72.88,7.87,1.34q6.52,1.42,9.84,4.34A10.24,10.24,0,0,1,144.21,60.13Z" transform="translate(-13.72 -1.64)"/><path class="cls-3" d="M202,70.47c-1.44.52-2.75,1-3.92,1.47a44.66,44.66,0,0,1-4.58,1.43,52,52,0,0,1-5.21,1.06,39.56,39.56,0,0,1-6.2.44,42.23,42.23,0,0,1-11.59-1.48,24.78,24.78,0,0,1-9.07-4.65,20.92,20.92,0,0,1-5.9-7.88,27.05,27.05,0,0,1-2.13-11.11A26.7,26.7,0,0,1,155.43,39a21.51,21.51,0,0,1,5.9-8,25.7,25.7,0,0,1,9-4.83,39,39,0,0,1,11.75-1.66,47.62,47.62,0,0,1,9.42.94A56.75,56.75,0,0,1,202,28.81v7.67h-.59a37,37,0,0,0-9.6-4.9,33.14,33.14,0,0,0-10.19-1.53,25.25,25.25,0,0,0-8,1.19,18,18,0,0,0-6.36,3.7A16.64,16.64,0,0,0,163,41.13a22.79,22.79,0,0,0-1.51,8.62,21.08,21.08,0,0,0,1.67,8.81,17.4,17.4,0,0,0,4.31,6,17.61,17.61,0,0,0,6.43,3.57,25.82,25.82,0,0,0,7.77,1.16,34.08,34.08,0,0,0,10.55-1.6,31.91,31.91,0,0,0,9.21-4.8H202Z" transform="translate(-13.72 -1.64)"/><path class="cls-3" d="M259.2,74h-8.31l-5.74-13.53H219.81L214.06,74h-7.91l21.33-48.57h10.39ZM242.75,54.91,232.48,31.06,222.17,54.91Z" transform="translate(-13.72 -1.64)"/><path class="cls-3" d="M306.42,40.1a13.26,13.26,0,0,1-1.36,6,14.25,14.25,0,0,1-3.8,4.78,20.25,20.25,0,0,1-7.16,3.77,36.36,36.36,0,0,1-10.43,1.26h-7.79V74h-7.79V25.42H284a46.26,46.26,0,0,1,8.93.73,22.61,22.61,0,0,1,6.49,2.3,14.48,14.48,0,0,1,5.18,4.64A12.45,12.45,0,0,1,306.42,40.1Zm-8.11.16a8.65,8.65,0,0,0-1.06-4.37,8,8,0,0,0-3.23-3,14.3,14.3,0,0,0-4.31-1.45,34.36,34.36,0,0,0-6.12-.45h-7.71V50.37h6.57a34.16,34.16,0,0,0,7.68-.7,11.62,11.62,0,0,0,4.8-2.23,9.4,9.4,0,0,0,2.61-3.3A9.3,9.3,0,0,0,298.31,40.26Z" transform="translate(-13.72 -1.64)"/><path class="cls-3" d="M355.29,74h-38.6V25.42h38.6v5.74H324.48V44.47h30.81v5.74H324.48v18h30.81Z" transform="translate(-13.72 -1.64)"/></svg>