<svg id="Layer_1" data-name="Layer 1" xmlns="http://www.w3.org/2000/svg" viewBox="0 0 353.93 95.67"><defs><style>.cls-1{fill:#8dc63f;}.cls-2{fill:none;stroke:#f15a29;stroke-width:3px;}.cls-2,.cls-6{stroke-miterlimit:10;}.cls-3{fill:#f79a70;}.cls-4{fill:#fbc2a4;}.cls-5{fill:#f15a29;}.cls-6{fill:#231f20;stroke:#27aae1;}</style></defs><path class="cls-1" d="M123.73,96.31c-35.5,0-71.76-4.12-92.46-7,1.23,0,2.52,0,3.85,0,87.36,0,126.1-24.33,141.42-38.83C200,28.35,250.65,16.51,289,10.48c29.33-4.61,56.14-6.61,69.58-7.39-23.92,7-91.79,29.6-142.75,73.42C200.59,89.65,169.59,96.31,123.73,96.31Z" transform="translate(-13.72 -1.64)"/><path class="cls-1" d="M350,4.65c-9.11,2.87-21.25,7-35,12.6-27.41,11.11-67,30.29-99.78,58.5-15.1,13-45.87,19.56-91.49,19.56-28.1,0-56.67-2.59-77.61-5.07,80-1.95,116.34-25,131.11-39,23.24-22,73.7-33.79,111.94-39.79C313.08,7.71,335.31,5.69,350,4.65m17.67-3S221.58,6.51,175.85,49.81C140,83.77,70.29,88.37,35.12,88.37c-13.09,0-21.4-.64-21.4-.64s55.53,9.58,110,9.58c37.65,0,74.8-4.57,92.79-20C279.64,23,367.65,1.64,367.65,1.64Z" transform="translate(-13.72 -1.64)"/><line class="cls-2" x1="34.31" y1="37.42" x2="284.71" y2="37.42"/><path class="cls-3" d="M46.81,39.07A48.08,48.08,0,0,1,33.72,25.42h25.1c3.37,5.69,8.62,10.17,14.2,13.65Z" transform="translate(-13.72 -1.64)"/><path class="cls-4" d="M73,39.07a43.59,43.59,0,0,0-14.2,13.65h-25a47.46,47.46,0,0,1,13-13.65Z" transform="translate(-13.72 -1.64)"/><path class="cls-5" d="M60.28,25.42c3.37,5.69,8.62,10.17,14.2,13.65a43.69,43.69,0,0,0-14.2,13.65H56.91A47.46,47.46,0,0,1,70,39.07,48.08,48.08,0,0,1,56.86,25.42Z" transform="translate(-13.72 -1.64)"/><path class="cls-5" d="M52.16,25.42c3.37,5.69,8.62,10.17,14.2,13.65a43.59,43.59,0,0,0-14.2,13.65H48.79a47.32,47.32,0,0,1,13-13.65,48.25,48.25,0,0,1-13.1-13.65Z" transform="translate(-13.72 -1.64)"/><path class="cls-5" d="M44,25.42c3.37,5.69,8.62,10.17,14.2,13.65A43.59,43.59,0,0,0,44,52.72H40.66a47.32,47.32,0,0,1,13-13.65A48.25,48.25,0,0,1,40.6,25.42Z" transform="translate(-13.72 -1.64)"/><path class="cls-5" d="M35.91,25.42c3.36,5.69,8.62,10.17,14.2,13.65a43.5,43.5,0,0,0-14.2,13.65H32.53a47.36,47.36,0,0,1,13-13.65,48.11,48.11,0,0,1-13.1-13.65Z" transform="translate(-13.72 -1.64)"/><path class="cls-5" d="M293,39.07l-6.57-10.81.37-.25,17.62,7,18.42,4.06-18.42,4-17.62,7-.37-.19Z" transform="translate(-13.72 -1.64)"/><path class="cls-6" d="M89.28,74H50.67V25.42H89.28v5.74H58.47V44.47H89.28v5.74H58.47v18H89.28Z" transform="translate(-13.72 -1.64)"/><path class="cls-6" d="M144.21,60.13a11.18,11.18,0,0,1-1.59,5.61,14.08,14.08,0,0,1-4.47,4.7,25.67,25.67,0,0,1-7.34,3.26,37.9,37.9,0,0,1-10.09,1.17,60.49,60.49,0,0,1-11.39-1A66.54,66.54,0,0,1,99,71V62.9h.55a34.61,34.61,0,0,0,10.27,4.73A39.9,39.9,0,0,0,120.8,69.3q7.23,0,11.27-2.26t4-6a5.75,5.75,0,0,0-1.91-4.76,14.15,14.15,0,0,0-5.81-2.38c-2-.44-4.1-.8-6.39-1.08s-4.73-.64-7.3-1.08q-7.8-1.37-11.55-4.68a10.92,10.92,0,0,1-3.76-8.62q0-6.11,6.22-10t15.78-3.9a60.23,60.23,0,0,1,11.33,1,59.2,59.2,0,0,1,9.13,2.41v7.63h-.55a29.25,29.25,0,0,0-8.8-3.89,40.29,40.29,0,0,0-11.15-1.55q-6.25,0-10.06,2.15t-3.79,5.55a6.13,6.13,0,0,0,1.89,4.76c1.26,1.15,3.47,2,6.65,2.64,1.68.31,4.06.68,7.16,1.11s5.72.88,7.87,1.34q6.52,1.42,9.84,4.34A10.24,10.24,0,0,1,144.21,60.13Z" transform="translate(-13.72 -1.64)"/><path class="cls-6" d="M202,70.47c-1.44.52-2.75,1-3.92,1.47a44.66,44.66,0,0,1-4.58,1.43,52,52,0,0,1-5.21,1.06,39.56,39.56,0,0,1-6.2.44,42.23,42.23,0,0,1-11.59-1.48,24.78,24.78,0,0,1-9.07-4.65,20.92,20.92,0,0,1-5.9-7.88,27.05,27.05,0,0,1-2.13-11.11A26.7,26.7,0,0,1,155.43,39a21.51,21.51,0,0,1,5.9-8,25.7,25.7,0,0,1,9-4.83,39,39,0,0,1,11.75-1.66,47.62,47.62,0,0,1,9.42.94A56.75,56.75,0,0,1,202,28.81v7.67h-.59a37,37,0,0,0-9.6-4.9,33.14,33.14,0,0,0-10.19-1.53,25.25,25.25,0,0,0-8,1.19,18,18,0,0,0-6.36,3.7A16.64,16.64,0,0,0,163,41.13a22.79,22.79,0,0,0-1.51,8.62,21.08,21.08,0,0,0,1.67,8.81,17.4,17.4,0,0,0,4.31,6,17.61,17.61,0,0,0,6.43,3.57,25.82,25.82,0,0,0,7.77,1.16,34.08,34.08,0,0,0,10.55-1.6,31.91,31.91,0,0,0,9.21-4.8H202Z" transform="translate(-13.72 -1.64)"/><path class="cls-6" d="M259.2,74h-8.31l-5.74-13.53H219.81L214.06,74h-7.91l21.33-48.57h10.39ZM242.75,54.91,232.48,31.06,222.17,54.91Z" transform="translate(-13.72 -1.64)"/><path class="cls-6" d="M306.42,40.1a13.26,13.26,0,0,1-1.36,6,14.25,14.25,0,0,1-3.8,4.78,20.25,20.25,0,0,1-7.16,3.77,36.36,36.36,0,0,1-10.43,1.26h-7.79V74h-7.79V25.42H284a46.26,46.26,0,0,1,8.93.73,22.61,22.61,0,0,1,6.49,2.3,14.48,14.48,0,0,1,5.18,4.64A12.45,12.45,0,0,1,306.42,40.1Zm-8.11.16a8.65,8.65,0,0,0-1.06-4.37,8,8,0,0,0-3.23-3,14.3,14.3,0,0,0-4.31-1.45,34.36,34.36,0,0,0-6.12-.45h-7.71V50.37h6.57a34.16,34.16,0,0,0,7.68-.7,11.62,11.62,0,0,0,4.8-2.23,9.4,9.4,0,0,0,2.61-3.3A9.3,9.3,0,0,0,298.31,40.26Z" transform="translate(-13.72 -1.64)"/><path class="cls-6" d="M355.29,74h-38.6V25.42h38.6v5.74H324.48V44.47h30.81v5.74H324.48v18h30.81Z" transform="translate(-13.72 -1.64)"/></svg>